<svg xmlns="http://www.w3.org/2000/svg" width="1800" height="600" viewBox="0 0 1800 600">
  <defs>
    <pattern id="grid" width="36" height="36" patternUnits="userSpaceOnUse"><path d="M36 0H0V36" fill="none" stroke="#eeeeee" stroke-width="1"/></pattern>
    <clipPath id="clip-shaper"><circle cx="0" cy="0" r="1"/></clipPath>
    <style>
      .mono{font-family:JetBrains Mono,SFMono-Regular,Menlo,Consolas,monospace}
      .label{font-size:12px;letter-spacing:4px;text-transform:uppercase;fill:#8a8a8a}
      .tiny{font-size:10px;letter-spacing:2.4px;text-transform:uppercase;fill:#8a8a8a}
      .name{font-size:18px;font-weight:800;letter-spacing:5px;fill:#000}
      .edge{fill:none;stroke:#000;stroke-width:5;stroke-linecap:round}
      .edge-soft{fill:none;stroke:#aaa;stroke-width:2;stroke-dasharray:10 12;stroke-linecap:round}
      .edge-red{fill:none;stroke:#c43838;stroke-width:3;stroke-dasharray:12 10;stroke-linecap:round}
      .dot{fill:#000;stroke:#fff;stroke-width:3}
      .dot-red{fill:#c43838;stroke:#fff;stroke-width:3}
      @keyframes pulse{0%,100%{opacity:.3;transform:scale(.9)}50%{opacity:1;transform:scale(1.15)}}
      @keyframes dash{from{stroke-dashoffset:0}to{stroke-dashoffset:-44}}
      .moving{animation:dash 2.4s linear infinite}
      .pulse{transform-box:fill-box;transform-origin:center;animation:pulse 1.8s ease-in-out infinite}
    </style>
  </defs>
  <rect width="1800" height="600" fill="#fff"/>
  <rect width="1800" height="600" fill="url(#grid)" opacity=".22"/>
  <rect x="28" y="28" width="1744" height="544" fill="none" stroke="#000" stroke-width="2"/>
  <text x="62" y="72" class="mono label" fill="#000">fig.mesh.cover.03 · message rail</text>
  <text x="1738" y="72" class="mono tiny" text-anchor="end">one line · many passes</text>

  <defs><clipPath id="clip-shaper-360-322"><circle cx="360" cy="322" r="78"/></clipPath></defs>
  <g>
    <circle cx="360" cy="322" r="84" fill="#fff" stroke="#000" stroke-width="3"/>
    <image href="mesh-alex-avatar.png" x="282" y="244" width="156" height="156" clip-path="url(#clip-shaper-360-322)" preserveAspectRatio="xMidYMid slice"/>
    <line x1="360" y1="244" x2="360" y2="400" stroke="#c43838" stroke-width="3"/><circle cx="338" cy="322" r="12" fill="#c43838"/><rect x="364" y="311" width="58" height="22" fill="#c43838" opacity=".9"/>
    <text x="360" y="442" class="mono name" text-anchor="middle" fill="#000">SHAPER</text>
    <text x="360" y="468" class="mono tiny" text-anchor="middle" fill="#8a8a8a">voice a</text>
  </g>
  <defs><clipPath id="clip-ivanov-1440-322"><circle cx="1440" cy="322" r="78"/></clipPath></defs>
  <g>
    <circle cx="1440" cy="322" r="84" fill="#000" stroke="#000" stroke-width="3"/>
    <image href="mesh-ivanov-avatar.jpg" x="1362" y="244" width="156" height="156" clip-path="url(#clip-ivanov-1440-322)" preserveAspectRatio="xMidYMid slice"/>
    
    <text x="1440" y="442" class="mono name" text-anchor="middle" fill="#fff">CODEX</text>
    <text x="1440" y="468" class="mono tiny" text-anchor="middle" fill="#bfbfbf">voice b</text>
  </g><line x1="462" y1="322" x2="1338" y2="322" class="edge"/><line x1="500.0" y1="322" x2="500.0" y2="294" stroke="#000" stroke-width="2"/><circle cx="500.0" cy="322" r="8" fill="#000" stroke="#fff" stroke-width="3"/><rect x="482.0" y="278" width="36" height="28" fill="#fff" stroke="#000" stroke-width="2"/><text x="500.0" y="297" class="mono" font-size="10" font-weight="800" text-anchor="middle">c1</text><line x1="572.7" y1="322" x2="572.7" y2="350" stroke="#000" stroke-width="2"/><circle cx="572.7" cy="322" r="8" fill="#000" stroke="#fff" stroke-width="3"/><rect x="554.7" y="334" width="36" height="28" fill="#fff" stroke="#000" stroke-width="2"/><text x="572.7" y="353" class="mono" font-size="10" font-weight="800" text-anchor="middle">c2</text><line x1="645.5" y1="322" x2="645.5" y2="294" stroke="#000" stroke-width="2"/><circle cx="645.5" cy="322" r="8" fill="#000" stroke="#fff" stroke-width="3"/><rect x="627.5" y="278" width="36" height="28" fill="#fff" stroke="#000" stroke-width="2"/><text x="645.5" y="297" class="mono" font-size="10" font-weight="800" text-anchor="middle">c3</text><line x1="718.2" y1="322" x2="718.2" y2="350" stroke="#000" stroke-width="2"/><circle cx="718.2" cy="322" r="8" fill="#000" stroke="#fff" stroke-width="3"/><rect x="700.2" y="334" width="36" height="28" fill="#fff" stroke="#000" stroke-width="2"/><text x="718.2" y="353" class="mono" font-size="10" font-weight="800" text-anchor="middle">c4</text><line x1="790.9" y1="322" x2="790.9" y2="294" stroke="#000" stroke-width="2"/><circle cx="790.9" cy="322" r="8" fill="#c43838" stroke="#fff" stroke-width="3"/><rect x="772.9" y="278" width="36" height="28" fill="#fff" stroke="#000" stroke-width="2"/><text x="790.9" y="297" class="mono" font-size="10" font-weight="800" text-anchor="middle">c5</text><line x1="863.6" y1="322" x2="863.6" y2="350" stroke="#000" stroke-width="2"/><circle cx="863.6" cy="322" r="8" fill="#000" stroke="#fff" stroke-width="3"/><rect x="845.6" y="334" width="36" height="28" fill="#fff" stroke="#000" stroke-width="2"/><text x="863.6" y="353" class="mono" font-size="10" font-weight="800" text-anchor="middle">c6</text><line x1="936.4" y1="322" x2="936.4" y2="294" stroke="#000" stroke-width="2"/><circle cx="936.4" cy="322" r="8" fill="#000" stroke="#fff" stroke-width="3"/><rect x="918.4" y="278" width="36" height="28" fill="#fff" stroke="#000" stroke-width="2"/><text x="936.4" y="297" class="mono" font-size="10" font-weight="800" text-anchor="middle">c7</text><line x1="1009.1" y1="322" x2="1009.1" y2="350" stroke="#000" stroke-width="2"/><circle cx="1009.1" cy="322" r="8" fill="#000" stroke="#fff" stroke-width="3"/><rect x="991.1" y="334" width="36" height="28" fill="#fff" stroke="#000" stroke-width="2"/><text x="1009.1" y="353" class="mono" font-size="10" font-weight="800" text-anchor="middle">c8</text><line x1="1081.8" y1="322" x2="1081.8" y2="294" stroke="#000" stroke-width="2"/><circle cx="1081.8" cy="322" r="8" fill="#000" stroke="#fff" stroke-width="3"/><rect x="1063.8" y="278" width="36" height="28" fill="#fff" stroke="#000" stroke-width="2"/><text x="1081.8" y="297" class="mono" font-size="10" font-weight="800" text-anchor="middle">c9</text><line x1="1154.5" y1="322" x2="1154.5" y2="350" stroke="#000" stroke-width="2"/><circle cx="1154.5" cy="322" r="8" fill="#000" stroke="#fff" stroke-width="3"/><rect x="1136.5" y="334" width="36" height="28" fill="#fff" stroke="#000" stroke-width="2"/><text x="1154.5" y="353" class="mono" font-size="10" font-weight="800" text-anchor="middle">c10</text><line x1="1227.3" y1="322" x2="1227.3" y2="294" stroke="#000" stroke-width="2"/><circle cx="1227.3" cy="322" r="8" fill="#000" stroke="#fff" stroke-width="3"/><rect x="1209.3" y="278" width="36" height="28" fill="#fff" stroke="#000" stroke-width="2"/><text x="1227.3" y="297" class="mono" font-size="10" font-weight="800" text-anchor="middle">c11</text><line x1="1300.0" y1="322" x2="1300.0" y2="350" stroke="#000" stroke-width="2"/><circle cx="1300.0" cy="322" r="8" fill="#c43838" stroke="#fff" stroke-width="3"/><rect x="1282.0" y="334" width="36" height="28" fill="#fff" stroke="#000" stroke-width="2"/><text x="1300.0" y="353" class="mono" font-size="10" font-weight="800" text-anchor="middle">c12</text><text x="900" y="236" class="mono" font-size="24" font-weight="800" letter-spacing="4" text-anchor="middle">12 paragraphs · 6 rounds</text><g><rect x="770.0" y="406" width="260" height="48" fill="#c43838"/><text x="900" y="437" class="mono" font-size="16" font-weight="800" letter-spacing="3" text-anchor="middle" fill="#fff">NEXT: c13 · v1</text></g><text x="900" y="552" class="mono tiny" text-anchor="middle">each dot is a written turn · each tick can become a revision</text></svg>
