<svg xmlns="http://www.w3.org/2000/svg" width="1800" height="600" viewBox="0 0 1800 600">

  <defs>
    <pattern id="grid" width="36" height="36" patternUnits="userSpaceOnUse"><path d="M36 0H0V36" fill="none" stroke="#eeeeee" stroke-width="1"/></pattern>
    <filter id="shadow" x="-20%" y="-20%" width="140%" height="140%"><feDropShadow dx="8" dy="8" stdDeviation="0" flood-color="#000" flood-opacity="0.12"/></filter>
    <linearGradient id="washR" x1="0" x2="1"><stop offset="0" stop-color="#fff" stop-opacity="0.05"/><stop offset="0.72" stop-color="#fff" stop-opacity="0.45"/><stop offset="1" stop-color="#fff" stop-opacity="0.96"/></linearGradient>
    <linearGradient id="washL" x1="1" x2="0"><stop offset="0" stop-color="#fff" stop-opacity="0.04"/><stop offset="0.70" stop-color="#fff" stop-opacity="0.50"/><stop offset="1" stop-color="#fff" stop-opacity="0.98"/></linearGradient>
    <clipPath id="robotBox"><rect x="0" y="0" width="560" height="560"/></clipPath>
  </defs>

<rect width="1800" height="600" fill="#fff"/><rect width="1800" height="600" fill="url(#grid)" opacity="0.55"/><rect x="28" y="28" width="1744" height="544" fill="none" stroke="#000" stroke-width="2"/>
    <defs><clipPath id="robotClip93"><rect x="93" y="42" width="512" height="512"/></clipPath></defs>
    <g filter="url(#shadow)">
      <rect x="93" y="42" width="512" height="512" fill="#fff" stroke="#000" stroke-width="2"/>
      <image href="robot-source-clean-normalized.jpg" x="93" y="42" width="512" height="512" preserveAspectRatio="xMidYMid slice" clip-path="url(#robotClip93)" opacity="0.84"/>
      <rect x="93" y="42" width="512" height="512" fill="url(#washL)"/>
    </g>
  <text x="690" y="86" font-family="JetBrains Mono, SFMono-Regular, Menlo, Consolas, monospace" font-size="16" letter-spacing="5" font-weight="400" fill="#c43838" text-anchor="start">FORMAT 02 · SPRINT ARCHITECTURE</text>
  <text x="690" y="198" font-family="Arial Black, Arial, Helvetica, sans-serif" font-size="82" font-weight="900" fill="#050505">14 days</text>
  <text x="690" y="286" font-family="Arial Black, Arial, Helvetica, sans-serif" font-size="82" font-weight="900" fill="#050505">inside a</text>
  <text x="690" y="374" font-family="Arial Black, Arial, Helvetica, sans-serif" font-size="82" font-weight="900" fill="#050505">self-work</text>
  <text x="690" y="462" font-family="Arial Black, Arial, Helvetica, sans-serif" font-size="82" font-weight="900" fill="#050505">system</text>
  <g font-family="JetBrains Mono, SFMono-Regular, Menlo, Consolas, monospace" font-size="15" letter-spacing="2.5">
    <rect x="690" y="504" width="936" height="44" fill="#000"/>
    <text x="716" y="532" fill="#fff">1–14 JUNE · CONTEXT · CONVERSATIONS · MEMORY · NEXT ACTION</text>
  </g>
  <g stroke="#c43838" stroke-width="2.5" fill="none" stroke-dasharray="10 12">
    <path d="M616 158 C686 144 708 152 758 176"/><path d="M616 288 C694 288 728 288 780 288"/><path d="M616 418 C690 438 724 432 776 408"/>
  </g>
  <g fill="#c43838"><circle cx="792" cy="184" r="14"/><circle cx="810" cy="288" r="14"/><circle cx="790" cy="402" r="14"/></g>

</svg>
