<svg xmlns="http://www.w3.org/2000/svg" width="1800" height="600" viewBox="0 0 1800 600">

  <defs>
    <pattern id="grid" width="36" height="36" patternUnits="userSpaceOnUse"><path d="M36 0H0V36" fill="none" stroke="#eeeeee" stroke-width="1"/></pattern>
    <filter id="shadow" x="-20%" y="-20%" width="140%" height="140%"><feDropShadow dx="8" dy="8" stdDeviation="0" flood-color="#000" flood-opacity="0.12"/></filter>
    <linearGradient id="washR" x1="0" x2="1"><stop offset="0" stop-color="#fff" stop-opacity="0.05"/><stop offset="0.72" stop-color="#fff" stop-opacity="0.45"/><stop offset="1" stop-color="#fff" stop-opacity="0.96"/></linearGradient>
    <linearGradient id="washL" x1="1" x2="0"><stop offset="0" stop-color="#fff" stop-opacity="0.04"/><stop offset="0.70" stop-color="#fff" stop-opacity="0.50"/><stop offset="1" stop-color="#fff" stop-opacity="0.98"/></linearGradient>
    <clipPath id="robotBox"><rect x="0" y="0" width="560" height="560"/></clipPath>
  </defs>

<rect width="1800" height="600" fill="#fff"/><rect width="1800" height="600" fill="url(#grid)" opacity="0.55"/><rect x="28" y="28" width="1744" height="544" fill="none" stroke="#000" stroke-width="2"/>
    <defs><clipPath id="robotClip1178"><rect x="1178" y="60" width="450" height="450"/></clipPath></defs>
    <g filter="url(#shadow)">
      <rect x="1178" y="60" width="450" height="450" fill="#fff" stroke="#000" stroke-width="2"/>
      <image href="robot-source-clean-normalized.jpg" x="1178" y="60" width="450" height="450" preserveAspectRatio="xMidYMid slice" clip-path="url(#robotClip1178)" opacity="0.72"/>
      <rect x="1178" y="60" width="450" height="450" fill="url(#washR)"/>
    </g>
  <text x="74" y="84" font-family="JetBrains Mono, SFMono-Regular, Menlo, Consolas, monospace" font-size="16" letter-spacing="5" font-weight="400" fill="#c43838" text-anchor="start">FORMAT 04 · MESH PROCESS</text>
  <text x="74" y="198" font-family="Arial Black, Arial, Helvetica, sans-serif" font-size="80" font-weight="900" fill="#050505">two agents</text>
  <text x="74" y="286" font-family="Arial Black, Arial, Helvetica, sans-serif" font-size="80" font-weight="900" fill="#050505">one article</text>
  <text x="78" y="344" font-family="Georgia, Times New Roman, serif" font-size="29" fill="#000">paragraph → sidecar → commit → live page</text>
  <g font-family="JetBrains Mono, SFMono-Regular, Menlo, Consolas, monospace" font-size="15" letter-spacing="2.6">
    <rect x="78" y="392" width="170" height="54" fill="#000"/><text x="106" y="425" fill="#fff">SHAPER</text>
    <rect x="302" y="392" width="170" height="54" fill="#fff" stroke="#000" stroke-width="2"/><text x="332" y="425" fill="#000">MURMUR</text>
    <rect x="526" y="392" width="170" height="54" fill="#000"/><text x="562" y="425" fill="#fff">CODEX</text>
    <rect x="750" y="392" width="170" height="54" fill="#fff" stroke="#000" stroke-width="2"/><text x="800" y="425" fill="#000">GIT</text>
    <rect x="974" y="392" width="170" height="54" fill="#c43838"/><text x="1006" y="425" fill="#fff">NETLIFY</text>
  </g>
  <g stroke="#c43838" stroke-width="3" fill="none" marker-end="url(#arr)"><path d="M252 419H296"/><path d="M476 419H520"/><path d="M700 419H744"/><path d="M924 419H968"/></g>
  <defs><marker id="arr" viewBox="0 0 10 10" refX="8" refY="5" markerWidth="8" markerHeight="8" orient="auto"><path d="M0 0L10 5L0 10Z" fill="#c43838"/></marker></defs>
  <text x="78" y="526" font-family="JetBrains Mono, SFMono-Regular, Menlo, Consolas, monospace" font-size="17" letter-spacing="3" font-weight="400" fill="#000" text-anchor="start">HUMAN WATCHES STATUS · TEXT STAYS COLLAPSED BY DEFAULT</text>

</svg>
